<svg width="22.000000" height="15.000000" viewBox="0 0 22 15" fill="none" xmlns="http://www.w3.org/2000/svg" xmlns:xlink="http://www.w3.org/1999/xlink">
	<desc>
			Created with Pixso.
	</desc>
	<defs/>
	<path id="Vector" d="M11 4.5C11.79 4.5 12.55 4.81 13.12 5.37C13.68 5.94 14 6.7 14 7.5C14 8.29 13.68 9.05 13.12 9.62C12.55 10.18 11.79 10.5 11 10.5C10.2 10.5 9.44 10.18 8.87 9.62C8.31 9.05 8 8.29 8 7.5C8 6.7 8.31 5.94 8.87 5.37C9.44 4.81 10.2 4.5 11 4.5ZM11 0C16 0 20.26 3.1 22 7.5C20.26 11.89 16 15 11 15C6 15 1.73 11.89 0 7.5C1.73 3.1 6 0 11 0ZM2.17 7.5C2.98 9.14 4.24 10.53 5.8 11.51C7.36 12.48 9.16 13 11 13C12.83 13 14.63 12.48 16.19 11.51C17.75 10.53 19.01 9.14 19.82 7.5C19.01 5.85 17.75 4.46 16.19 3.48C14.63 2.51 12.83 2 11 2C9.16 2 7.36 2.51 5.8 3.48C4.24 4.46 2.98 5.85 2.17 7.5Z" fill="#4C4C4B" fill-opacity="1.000000" fill-rule="nonzero"/>
</svg>
